# xmcd
#
# Track frame offsets:
#	150
#	30325
#	58120
#	87257
#	114947
#	151567
#	176727
#	202515
#	229935
#	259837
#	288260
#
# Disc length: 4232 seconds
#
# Revision: 0
# Processed by: cddbd v1.5.2PL0 Copyright (c) Steve Scherf et al.
# Submitted via: EZCDAudioConverter 4.0.5.1
#
DISCID=8010860b
DTITLE=Various Artist - Premier Sound 5 Sampler (Spring 1997)
DYEAR=1900
DGENRE=
TTITLE0=Bryan Duncan - Joy Is A Singable Thing/Turning/Take Another Look (From
TTITLE0=Album: Blue Skies)
TTITLE1=Martyn Joseph - A Father's Love/Teach Me Your Ways/Time After Time (Fr
TTITLE1=om Album: Ballads)
TTITLE2=Angelo and Veronica - Do What's Right/Prayer Is The Answer/To Know You (
TTITLE2=From Album: Never Enough)
TTITLE3=Out Of Eden - More Than You Know/It's Me/Get To Heaven (From Album: Mo
TTITLE3=re Than You Know)
TTITLE4=Abundant Club - Warning/Soul/I See You (From Album: Subscribe To The V
TTITLE4=ibe)
TTITLE5=Guardian - Bottle Rocket/Babble On/Harder Than It Seems (From Album: B
TTITLE5=ottle Rocket)
TTITLE6=Petra - We Need Jesus/Waited For The Lord On High/We Need Jesus/Ancien
TTITLE6=t Of Days (From Album: We Need Jesus)
TTITLE7=Maranatha! Music - There Is No One Who Is Like You/Still Waters/At You
TTITLE7=r Feet (From Album: Come As You Are)
TTITLE8=Donn Thomas - Praise Him/Lament For The Nation/With My Whole Heart (Fr
TTITLE8=om Album: Psalms Alive)
TTITLE9=Martin Ball - We Have Called On You Lord/All Heaven Declares/You Are W
TTITLE9=orthy Of My Praise (From Album: Come To The Throne)
TTITLE10=Hosanna! Music - The Lord Reigns/I Need You More/Revival Fire Fall (F
TTITLE10=rom Album: Revival At Brownsville)
EXTD=
EXTT0=
EXTT1=
EXTT2=
EXTT3=
EXTT4=
EXTT5=
EXTT6=
EXTT7=
EXTT8=
EXTT9=
EXTT10=
PLAYORDER=
